<svg xmlns="http://www.w3.org/2000/svg" width="348" height="390" viewBox="0 0 348 390">
<rect width="100%" height="100%" fill="white"/>
<text x="16" y="28" font-family="Arial, sans-serif" font-size="16" font-weight="700" fill="#0f172a">sample 3: full adjacency (ddgp, n=8, K=2)</text>
<text x="16" y="50" font-family="Arial, sans-serif" font-size="12" fill="#475569">blue: discretization edge, red: pruning edge, white: absent</text>
<text x="87" y="78" text-anchor="middle" font-family="Arial, sans-serif" font-size="11" font-weight="700" fill="#334155">1</text>
<text x="117" y="78" text-anchor="middle" font-family="Arial, sans-serif" font-size="11" font-weight="700" fill="#334155">2</text>
<text x="147" y="78" text-anchor="middle" font-family="Arial, sans-serif" font-size="11" font-weight="700" fill="#334155">3</text>
<text x="177" y="78" text-anchor="middle" font-family="Arial, sans-serif" font-size="11" font-weight="700" fill="#334155">4</text>
<text x="207" y="78" text-anchor="middle" font-family="Arial, sans-serif" font-size="11" font-weight="700" fill="#334155">5</text>
<text x="237" y="78" text-anchor="middle" font-family="Arial, sans-serif" font-size="11" font-weight="700" fill="#334155">6</text>
<text x="267" y="78" text-anchor="middle" font-family="Arial, sans-serif" font-size="11" font-weight="700" fill="#334155">7</text>
<text x="297" y="78" text-anchor="middle" font-family="Arial, sans-serif" font-size="11" font-weight="700" fill="#334155">8</text>
<text x="58" y="111" text-anchor="end" font-family="Arial, sans-serif" font-size="11" font-weight="700" fill="#334155">1</text>
<text x="58" y="141" text-anchor="end" font-family="Arial, sans-serif" font-size="11" font-weight="700" fill="#334155">2</text>
<text x="58" y="171" text-anchor="end" font-family="Arial, sans-serif" font-size="11" font-weight="700" fill="#334155">3</text>
<text x="58" y="201" text-anchor="end" font-family="Arial, sans-serif" font-size="11" font-weight="700" fill="#334155">4</text>
<text x="58" y="231" text-anchor="end" font-family="Arial, sans-serif" font-size="11" font-weight="700" fill="#334155">5</text>
<text x="58" y="261" text-anchor="end" font-family="Arial, sans-serif" font-size="11" font-weight="700" fill="#334155">6</text>
<text x="58" y="291" text-anchor="end" font-family="Arial, sans-serif" font-size="11" font-weight="700" fill="#334155">7</text>
<text x="58" y="321" text-anchor="end" font-family="Arial, sans-serif" font-size="11" font-weight="700" fill="#334155">8</text>
<rect x="72" y="92" width="30" height="30" fill="#111827" stroke="#cbd5e1" stroke-width="1"/>
<rect x="102" y="92" width="30" height="30" fill="#2563eb" stroke="#cbd5e1" stroke-width="1"/>
<rect x="132" y="92" width="30" height="30" fill="#2563eb" stroke="#cbd5e1" stroke-width="1"/>
<rect x="162" y="92" width="30" height="30" fill="#2563eb" stroke="#cbd5e1" stroke-width="1"/>
<rect x="192" y="92" width="30" height="30" fill="#f8fafc" stroke="#cbd5e1" stroke-width="1"/>
<rect x="222" y="92" width="30" height="30" fill="#2563eb" stroke="#cbd5e1" stroke-width="1"/>
<rect x="252" y="92" width="30" height="30" fill="#2563eb" stroke="#cbd5e1" stroke-width="1"/>
<rect x="282" y="92" width="30" height="30" fill="#2563eb" stroke="#cbd5e1" stroke-width="1"/>
<rect x="72" y="122" width="30" height="30" fill="#2563eb" stroke="#cbd5e1" stroke-width="1"/>
<rect x="102" y="122" width="30" height="30" fill="#111827" stroke="#cbd5e1" stroke-width="1"/>
<rect x="132" y="122" width="30" height="30" fill="#2563eb" stroke="#cbd5e1" stroke-width="1"/>
<rect x="162" y="122" width="30" height="30" fill="#dc2626" stroke="#cbd5e1" stroke-width="1"/>
<rect x="192" y="122" width="30" height="30" fill="#f8fafc" stroke="#cbd5e1" stroke-width="1"/>
<rect x="222" y="122" width="30" height="30" fill="#f8fafc" stroke="#cbd5e1" stroke-width="1"/>
<rect x="252" y="122" width="30" height="30" fill="#f8fafc" stroke="#cbd5e1" stroke-width="1"/>
<rect x="282" y="122" width="30" height="30" fill="#f8fafc" stroke="#cbd5e1" stroke-width="1"/>
<rect x="72" y="152" width="30" height="30" fill="#2563eb" stroke="#cbd5e1" stroke-width="1"/>
<rect x="102" y="152" width="30" height="30" fill="#2563eb" stroke="#cbd5e1" stroke-width="1"/>
<rect x="132" y="152" width="30" height="30" fill="#111827" stroke="#cbd5e1" stroke-width="1"/>
<rect x="162" y="152" width="30" height="30" fill="#2563eb" stroke="#cbd5e1" stroke-width="1"/>
<rect x="192" y="152" width="30" height="30" fill="#2563eb" stroke="#cbd5e1" stroke-width="1"/>
<rect x="222" y="152" width="30" height="30" fill="#f8fafc" stroke="#cbd5e1" stroke-width="1"/>
<rect x="252" y="152" width="30" height="30" fill="#dc2626" stroke="#cbd5e1" stroke-width="1"/>
<rect x="282" y="152" width="30" height="30" fill="#f8fafc" stroke="#cbd5e1" stroke-width="1"/>
<rect x="72" y="182" width="30" height="30" fill="#2563eb" stroke="#cbd5e1" stroke-width="1"/>
<rect x="102" y="182" width="30" height="30" fill="#dc2626" stroke="#cbd5e1" stroke-width="1"/>
<rect x="132" y="182" width="30" height="30" fill="#2563eb" stroke="#cbd5e1" stroke-width="1"/>
<rect x="162" y="182" width="30" height="30" fill="#111827" stroke="#cbd5e1" stroke-width="1"/>
<rect x="192" y="182" width="30" height="30" fill="#2563eb" stroke="#cbd5e1" stroke-width="1"/>
<rect x="222" y="182" width="30" height="30" fill="#f8fafc" stroke="#cbd5e1" stroke-width="1"/>
<rect x="252" y="182" width="30" height="30" fill="#2563eb" stroke="#cbd5e1" stroke-width="1"/>
<rect x="282" y="182" width="30" height="30" fill="#2563eb" stroke="#cbd5e1" stroke-width="1"/>
<rect x="72" y="212" width="30" height="30" fill="#f8fafc" stroke="#cbd5e1" stroke-width="1"/>
<rect x="102" y="212" width="30" height="30" fill="#f8fafc" stroke="#cbd5e1" stroke-width="1"/>
<rect x="132" y="212" width="30" height="30" fill="#2563eb" stroke="#cbd5e1" stroke-width="1"/>
<rect x="162" y="212" width="30" height="30" fill="#2563eb" stroke="#cbd5e1" stroke-width="1"/>
<rect x="192" y="212" width="30" height="30" fill="#111827" stroke="#cbd5e1" stroke-width="1"/>
<rect x="222" y="212" width="30" height="30" fill="#2563eb" stroke="#cbd5e1" stroke-width="1"/>
<rect x="252" y="212" width="30" height="30" fill="#f8fafc" stroke="#cbd5e1" stroke-width="1"/>
<rect x="282" y="212" width="30" height="30" fill="#f8fafc" stroke="#cbd5e1" stroke-width="1"/>
<rect x="72" y="242" width="30" height="30" fill="#2563eb" stroke="#cbd5e1" stroke-width="1"/>
<rect x="102" y="242" width="30" height="30" fill="#f8fafc" stroke="#cbd5e1" stroke-width="1"/>
<rect x="132" y="242" width="30" height="30" fill="#f8fafc" stroke="#cbd5e1" stroke-width="1"/>
<rect x="162" y="242" width="30" height="30" fill="#f8fafc" stroke="#cbd5e1" stroke-width="1"/>
<rect x="192" y="242" width="30" height="30" fill="#2563eb" stroke="#cbd5e1" stroke-width="1"/>
<rect x="222" y="242" width="30" height="30" fill="#111827" stroke="#cbd5e1" stroke-width="1"/>
<rect x="252" y="242" width="30" height="30" fill="#f8fafc" stroke="#cbd5e1" stroke-width="1"/>
<rect x="282" y="242" width="30" height="30" fill="#dc2626" stroke="#cbd5e1" stroke-width="1"/>
<rect x="72" y="272" width="30" height="30" fill="#2563eb" stroke="#cbd5e1" stroke-width="1"/>
<rect x="102" y="272" width="30" height="30" fill="#f8fafc" stroke="#cbd5e1" stroke-width="1"/>
<rect x="132" y="272" width="30" height="30" fill="#dc2626" stroke="#cbd5e1" stroke-width="1"/>
<rect x="162" y="272" width="30" height="30" fill="#2563eb" stroke="#cbd5e1" stroke-width="1"/>
<rect x="192" y="272" width="30" height="30" fill="#f8fafc" stroke="#cbd5e1" stroke-width="1"/>
<rect x="222" y="272" width="30" height="30" fill="#f8fafc" stroke="#cbd5e1" stroke-width="1"/>
<rect x="252" y="272" width="30" height="30" fill="#111827" stroke="#cbd5e1" stroke-width="1"/>
<rect x="282" y="272" width="30" height="30" fill="#f8fafc" stroke="#cbd5e1" stroke-width="1"/>
<rect x="72" y="302" width="30" height="30" fill="#2563eb" stroke="#cbd5e1" stroke-width="1"/>
<rect x="102" y="302" width="30" height="30" fill="#f8fafc" stroke="#cbd5e1" stroke-width="1"/>
<rect x="132" y="302" width="30" height="30" fill="#f8fafc" stroke="#cbd5e1" stroke-width="1"/>
<rect x="162" y="302" width="30" height="30" fill="#2563eb" stroke="#cbd5e1" stroke-width="1"/>
<rect x="192" y="302" width="30" height="30" fill="#f8fafc" stroke="#cbd5e1" stroke-width="1"/>
<rect x="222" y="302" width="30" height="30" fill="#dc2626" stroke="#cbd5e1" stroke-width="1"/>
<rect x="252" y="302" width="30" height="30" fill="#f8fafc" stroke="#cbd5e1" stroke-width="1"/>
<rect x="282" y="302" width="30" height="30" fill="#111827" stroke="#cbd5e1" stroke-width="1"/>
<rect x="16" y="344" width="14" height="14" fill="#2563eb" stroke="#cbd5e1"/>
<text x="36" y="356" font-family="Arial, sans-serif" font-size="12" fill="#334155">discretization</text>
<rect x="140" y="344" width="14" height="14" fill="#dc2626" stroke="#cbd5e1"/>
<text x="160" y="356" font-family="Arial, sans-serif" font-size="12" fill="#334155">pruning</text>
<rect x="264" y="344" width="14" height="14" fill="#f8fafc" stroke="#cbd5e1"/>
<text x="284" y="356" font-family="Arial, sans-serif" font-size="12" fill="#334155">absent</text>
</svg>
