<svg xmlns="http://www.w3.org/2000/svg" width="258" height="300" viewBox="0 0 258 300">
<rect width="100%" height="100%" fill="white"/>
<text x="16" y="28" font-family="Arial, sans-serif" font-size="16" font-weight="700" fill="#0f172a">sample 2: Fix(3) union Fix(6) for pruning edge (3,6)</text>
<text x="16" y="50" font-family="Arial, sans-serif" font-size="12" fill="#475569">blue: discretization edge, red: pruning edge, white: absent</text>
<text x="16" y="68" font-family="Arial, sans-serif" font-size="12" fill="#475569">green: Fix(u), orange: Fix(v), teal: intersection</text>
<text x="87" y="78" text-anchor="middle" font-family="Arial, sans-serif" font-size="11" font-weight="700" fill="#0f766e">1</text>
<text x="117" y="78" text-anchor="middle" font-family="Arial, sans-serif" font-size="11" font-weight="700" fill="#0f766e">2</text>
<text x="147" y="78" text-anchor="middle" font-family="Arial, sans-serif" font-size="11" font-weight="700" fill="#0f766e">3</text>
<text x="177" y="78" text-anchor="middle" font-family="Arial, sans-serif" font-size="11" font-weight="700" fill="#f97316">4</text>
<text x="207" y="78" text-anchor="middle" font-family="Arial, sans-serif" font-size="11" font-weight="700" fill="#f97316">6</text>
<text x="58" y="111" text-anchor="end" font-family="Arial, sans-serif" font-size="11" font-weight="700" fill="#0f766e">1</text>
<text x="58" y="141" text-anchor="end" font-family="Arial, sans-serif" font-size="11" font-weight="700" fill="#0f766e">2</text>
<text x="58" y="171" text-anchor="end" font-family="Arial, sans-serif" font-size="11" font-weight="700" fill="#0f766e">3</text>
<text x="58" y="201" text-anchor="end" font-family="Arial, sans-serif" font-size="11" font-weight="700" fill="#f97316">4</text>
<text x="58" y="231" text-anchor="end" font-family="Arial, sans-serif" font-size="11" font-weight="700" fill="#f97316">6</text>
<rect x="72" y="92" width="30" height="30" fill="#111827" stroke="#cbd5e1" stroke-width="1"/>
<rect x="102" y="92" width="30" height="30" fill="#2563eb" stroke="#cbd5e1" stroke-width="1"/>
<rect x="132" y="92" width="30" height="30" fill="#2563eb" stroke="#cbd5e1" stroke-width="1"/>
<rect x="162" y="92" width="30" height="30" fill="#2563eb" stroke="#cbd5e1" stroke-width="1"/>
<rect x="192" y="92" width="30" height="30" fill="#f8fafc" stroke="#cbd5e1" stroke-width="1"/>
<rect x="72" y="122" width="30" height="30" fill="#2563eb" stroke="#cbd5e1" stroke-width="1"/>
<rect x="102" y="122" width="30" height="30" fill="#111827" stroke="#cbd5e1" stroke-width="1"/>
<rect x="132" y="122" width="30" height="30" fill="#2563eb" stroke="#cbd5e1" stroke-width="1"/>
<rect x="162" y="122" width="30" height="30" fill="#f8fafc" stroke="#cbd5e1" stroke-width="1"/>
<rect x="192" y="122" width="30" height="30" fill="#2563eb" stroke="#cbd5e1" stroke-width="1"/>
<rect x="72" y="152" width="30" height="30" fill="#2563eb" stroke="#cbd5e1" stroke-width="1"/>
<rect x="102" y="152" width="30" height="30" fill="#2563eb" stroke="#cbd5e1" stroke-width="1"/>
<rect x="132" y="152" width="30" height="30" fill="#111827" stroke="#cbd5e1" stroke-width="1"/>
<rect x="162" y="152" width="30" height="30" fill="#2563eb" stroke="#cbd5e1" stroke-width="1"/>
<rect x="192" y="152" width="30" height="30" fill="#dc2626" stroke="#9333ea" stroke-width="3"/>
<rect x="72" y="182" width="30" height="30" fill="#2563eb" stroke="#cbd5e1" stroke-width="1"/>
<rect x="102" y="182" width="30" height="30" fill="#f8fafc" stroke="#cbd5e1" stroke-width="1"/>
<rect x="132" y="182" width="30" height="30" fill="#2563eb" stroke="#cbd5e1" stroke-width="1"/>
<rect x="162" y="182" width="30" height="30" fill="#111827" stroke="#cbd5e1" stroke-width="1"/>
<rect x="192" y="182" width="30" height="30" fill="#2563eb" stroke="#cbd5e1" stroke-width="1"/>
<rect x="72" y="212" width="30" height="30" fill="#f8fafc" stroke="#cbd5e1" stroke-width="1"/>
<rect x="102" y="212" width="30" height="30" fill="#2563eb" stroke="#cbd5e1" stroke-width="1"/>
<rect x="132" y="212" width="30" height="30" fill="#dc2626" stroke="#9333ea" stroke-width="3"/>
<rect x="162" y="212" width="30" height="30" fill="#2563eb" stroke="#cbd5e1" stroke-width="1"/>
<rect x="192" y="212" width="30" height="30" fill="#111827" stroke="#cbd5e1" stroke-width="1"/>
<rect x="16" y="254" width="14" height="14" fill="#2563eb" stroke="#cbd5e1"/>
<text x="36" y="266" font-family="Arial, sans-serif" font-size="12" fill="#334155">discretization</text>
<rect x="140" y="254" width="14" height="14" fill="#dc2626" stroke="#cbd5e1"/>
<text x="160" y="266" font-family="Arial, sans-serif" font-size="12" fill="#334155">pruning</text>
<rect x="264" y="254" width="14" height="14" fill="#f8fafc" stroke="#cbd5e1"/>
<text x="284" y="266" font-family="Arial, sans-serif" font-size="12" fill="#334155">absent</text>
</svg>
